<?xml version="1.0" standalone="no"?>
<!DOCTYPE svg PUBLIC "-//W3C//DTD SVG 20010904//EN"
 "http://www.w3.org/TR/2001/REC-SVG-20010904/DTD/svg10.dtd">
<svg version="1.0" xmlns="http://www.w3.org/2000/svg"
 width="512.000000pt" height="512.000000pt" viewBox="0 0 512.000000 512.000000"
 preserveAspectRatio="xMidYMid meet">

<g transform="translate(0.000000,512.000000) scale(0.100000,-0.100000)"
fill="#000000" stroke="none">
<path d="M569 4763 c-87 -79 -184 -247 -208 -361 -6 -29 -11 -90 -11 -135 0
-72 7 -112 36 -215 l6 -22 -43 19 c-62 28 -94 13 -136 -65 -110 -207 -78 -434
88 -609 l47 -50 -47 3 c-36 3 -52 -1 -75 -19 -27 -21 -28 -26 -23 -80 3 -39
16 -79 42 -127 100 -190 296 -295 590 -317 142 -10 255 -33 322 -66 65 -31
113 -78 113 -109 0 -58 -224 -317 -340 -393 -74 -48 -192 -103 -265 -123 -89
-24 -293 -30 -378 -10 -57 13 -74 14 -95 4 -34 -17 -57 -58 -49 -89 4 -13 58
-80 122 -148 63 -68 114 -125 113 -126 -2 -2 -28 2 -59 8 -31 5 -68 7 -82 3
-34 -8 -61 -58 -50 -91 13 -37 1202 -1304 1232 -1313 14 -4 89 -7 166 -6 232
2 420 45 622 144 283 138 497 355 653 663 l70 138 31 -68 c116 -259 171 -345
279 -437 91 -78 216 -126 326 -126 119 0 160 49 120 144 l-14 34 61 -29 c133
-63 270 -73 396 -29 75 27 185 103 227 158 45 59 44 91 -3 137 l-36 35 69 0
c93 0 182 23 268 67 97 50 228 181 284 283 55 100 54 137 -7 169 -19 10 -32
10 -67 1 -26 -8 -72 -11 -111 -7 -92 7 -229 77 -502 256 -321 210 -452 271
-586 271 -78 0 -133 -19 -210 -72 l-60 -41 40 42 c152 162 456 370 640 436 68
25 95 51 95 91 0 38 -11 51 -128 155 l-84 73 29 13 c112 49 122 55 134 84 10
25 9 36 -2 59 -8 16 -131 131 -274 256 -371 325 -728 639 -890 782 -77 69
-150 128 -163 133 -55 21 -367 -114 -548 -236 -136 -92 -233 -173 -348 -290
-97 -98 -248 -288 -301 -379 -15 -25 -30 -46 -35 -46 -14 0 -19 85 -9 160 6
41 22 108 35 150 45 141 29 240 -59 363 -63 88 -160 176 -393 357 -315 244
-414 357 -414 473 0 40 -5 53 -29 78 -40 39 -72 37 -122 -8z m185 -428 c55
-56 189 -169 297 -253 301 -234 399 -343 399 -446 0 -23 -12 -77 -27 -121 -25
-72 -27 -94 -28 -225 l0 -145 35 -70 c19 -38 34 -72 33 -75 -1 -3 -22 -50 -47
-105 -25 -55 -47 -104 -49 -110 -2 -5 -19 3 -37 18 -93 78 -226 119 -461 141
-178 17 -279 45 -365 102 -50 33 -126 114 -107 114 4 0 80 -7 168 -15 154 -15
160 -15 185 3 34 26 47 64 32 97 -9 18 -38 38 -106 69 -243 113 -366 253 -366
418 0 58 17 138 29 138 3 0 70 -36 149 -80 79 -43 153 -82 164 -85 44 -15 98
32 98 85 0 11 -25 48 -56 82 -73 82 -108 133 -147 216 -57 121 -49 293 20 411
l25 43 30 -53 c17 -30 76 -99 132 -154z m2075 -430 c64 -55 68 -61 48 -68 -39
-15 -247 -1 -307 21 l-55 19 70 33 c95 44 137 59 157 57 9 -1 48 -29 87 -62z
m-408 -160 c108 -50 179 -67 317 -72 103 -5 137 -2 217 16 l94 22 275 -242
276 -242 -21 -28 c-33 -47 -68 -144 -79 -217 -9 -64 -5 -109 15 -207 6 -26 2
-32 -25 -49 -60 -35 -236 -181 -338 -280 -247 -240 -444 -527 -580 -846 -67
-156 -100 -219 -170 -327 -98 -149 -255 -300 -368 -356 l-41 -20 -45 31 c-174
120 -372 175 -616 171 l-144 -2 -221 238 c-122 130 -223 241 -225 244 -1 4 12
14 30 23 60 28 135 95 176 157 52 78 80 153 101 267 l16 92 58 47 c127 103
262 288 359 494 147 310 172 361 216 436 122 209 337 449 542 605 58 44 106
80 106 80 1 0 35 -16 75 -35z m1361 -840 l-117 -61 -8 30 c-13 54 12 167 49
224 l15 22 89 -77 89 -77 -117 -61z m93 -232 l64 -57 -91 -48 c-237 -125 -492
-335 -653 -536 -45 -56 -53 -62 -78 -58 -39 8 -117 43 -117 53 0 4 38 53 84
108 105 126 273 288 402 386 100 77 300 209 317 209 4 0 37 -26 72 -57z
m-2999 -699 c-26 -102 -116 -208 -206 -242 l-55 -20 -91 96 -91 97 84 7 c98 9
226 37 298 67 65 26 68 26 61 -5z m2897 -25 c86 -29 159 -70 407 -233 242
-159 385 -235 489 -261 39 -9 71 -21 71 -25 0 -12 -83 -85 -128 -114 -22 -14
-69 -35 -104 -47 -53 -18 -78 -20 -163 -16 -100 5 -162 21 -292 78 -44 19 -55
21 -81 10 -34 -14 -57 -59 -48 -94 3 -12 52 -64 108 -114 57 -50 116 -105 132
-122 29 -30 29 -31 10 -47 -10 -8 -44 -27 -74 -42 -45 -21 -69 -26 -130 -26
-133 1 -250 64 -402 216 -76 77 -91 88 -122 88 -39 0 -76 -36 -76 -75 0 -12
29 -88 64 -168 71 -161 71 -165 -15 -121 -104 52 -196 166 -264 324 -111 259
-215 391 -345 437 -28 10 -50 21 -50 26 0 22 136 267 149 267 4 0 15 -6 26
-14 11 -7 45 -22 76 -34 182 -67 342 -45 521 74 71 47 89 54 130 54 27 0 77
-9 111 -21z m-2829 -824 c452 -483 408 -447 575 -466 181 -20 377 17 556 105
232 115 427 323 566 603 23 46 48 87 56 90 18 7 103 -25 109 -41 6 -16 -78
-204 -133 -297 -244 -411 -633 -639 -1094 -639 l-97 0 -493 527 c-272 290
-498 533 -502 540 -6 10 0 13 21 13 25 0 80 -55 436 -435z m651 -210 c33 -9
93 -30 134 -47 59 -25 70 -33 56 -40 -29 -17 -205 -22 -280 -8 -67 11 -72 14
-120 67 l-50 56 100 -6 c55 -3 127 -13 160 -22z"/>
<path d="M2502 3129 c-140 -70 -174 -245 -70 -363 131 -150 377 -73 404 127
13 89 -42 191 -126 233 -60 31 -148 32 -208 3z m157 -165 c27 -34 26 -57 -1
-88 -47 -51 -128 -25 -128 41 0 67 88 99 129 47z"/>
<path d="M1919 2721 c-26 -10 -57 -25 -69 -34 -21 -15 -25 -14 -59 9 -55 37
-102 29 -129 -23 -18 -33 -15 -49 19 -87 l31 -36 -17 -44 c-13 -32 -16 -66
-14 -124 3 -66 9 -86 34 -127 45 -73 101 -108 179 -113 74 -5 117 11 236 87
159 102 224 122 254 79 21 -29 20 -54 -3 -104 -26 -57 -82 -117 -130 -139 -38
-17 -43 -17 -84 -1 -71 27 -106 17 -126 -37 -21 -55 24 -105 113 -128 61 -15
135 0 198 40 l45 28 52 -43 c62 -52 99 -57 136 -19 42 41 34 80 -28 137 l-54
49 24 50 c52 107 39 210 -35 284 -56 56 -85 68 -161 63 -79 -5 -146 -33 -279
-120 -114 -73 -158 -83 -190 -43 -30 38 -30 110 1 156 12 19 44 49 71 67 40
26 58 32 103 32 44 0 58 5 78 25 24 24 31 57 19 90 -18 45 -131 59 -215 26z"/>
<path d="M1547 1966 c-140 -52 -204 -189 -146 -316 27 -60 54 -88 114 -116
196 -93 406 116 309 308 -52 104 -179 160 -277 124z m115 -176 c24 -25 29 -36
24 -58 -14 -59 -80 -81 -123 -40 -31 29 -30 72 2 103 32 33 60 31 97 -5z"/>
</g>
</svg>
